<svg width="35" height="35" viewBox="0 0 35 35" fill="none" xmlns="http://www.w3.org/2000/svg">
<rect width="35" height="35" rx="3" fill="white"/>
<path d="M12.7032 27.7663C12.7032 27.8987 12.5548 28.0045 12.3677 28.0045C12.1548 28.0244 12.0065 27.9185 12.0065 27.7663C12.0065 27.634 12.1548 27.5281 12.3419 27.5281C12.5355 27.5083 12.7032 27.6141 12.7032 27.7663ZM10.6968 27.4686C10.6737 27.5362 10.6961 27.609 10.7494 27.6694C10.8643 27.7994 11.0662 27.8575 11.2295 27.7987C11.3004 27.7732 11.3554 27.7246 11.3742 27.6605C11.4129 27.5281 11.2903 27.3759 11.0968 27.3164C10.929 27.2701 10.7419 27.3362 10.6968 27.4686ZM13.5484 27.3561C13.3613 27.4024 13.2323 27.5281 13.2516 27.6803C13.271 27.8127 13.4387 27.8987 13.6323 27.8524C13.8194 27.806 13.9484 27.6803 13.929 27.548C13.9097 27.4223 13.7355 27.3362 13.5484 27.3561ZM17.7935 2C8.84516 2 2 8.96763 2 18.1453C2 25.4029 6.4049 31.625 12.7244 33.8988C12.8644 33.9491 13.0087 33.9926 13.1574 33.9988C13.814 34.0263 14.0516 33.5614 14.0516 33.1724C14.0516 33.1062 14.0511 32.992 14.0503 32.841C14.0396 30.9246 12.1405 29.6232 10.3481 28.9451C9.5846 28.6562 8.91482 28.1326 8.59454 27.2177C8.57629 27.1656 8.55821 27.1126 8.53718 27.0615C8.40045 26.7296 7.81581 25.4017 7.00094 24.8464C6.85683 24.7482 6.70088 24.6672 6.5682 24.554C6.23744 24.2719 5.72499 23.718 6.77129 23.6972C6.84092 23.6959 6.91179 23.6995 6.98053 23.7107C7.34896 23.7704 8.61818 24.0686 9.36774 25.4041C10.5842 27.603 12.5083 27.3644 13.6087 26.9769C13.9034 26.873 14.1103 26.4925 14.1907 26.1906C14.3941 25.4267 13.8969 24.4252 13.1199 24.2801C10.274 23.7485 7.85807 22.4322 7.85807 17.2454C7.85807 16.228 8.01133 15.4941 8.32689 14.8411C8.81659 13.8277 9.08492 12.6773 9.05995 11.5521C9.05124 11.1598 9.07709 10.718 9.16143 10.2375C9.31854 9.34243 10.0954 8.70838 10.9564 8.99914C11.573 9.20737 12.2318 9.54719 12.7782 9.86387C13.5702 10.3229 14.5099 10.4761 15.4109 10.3143C16.277 10.1588 17.167 10.0793 18.0516 10.0793C18.9354 10.0793 19.8245 10.1586 20.6898 10.3139C21.5923 10.4757 22.5334 10.3215 23.3264 9.86114C23.8743 9.54296 24.5351 9.20181 25.153 8.9942C26.0109 8.70593 26.7828 9.34011 26.9403 10.2314C27.0261 10.717 27.0522 11.1628 27.0432 11.5579C27.0177 12.6801 27.2703 13.8273 27.8145 14.809C28.1819 15.4718 28.3871 16.2126 28.3871 17.2454C28.3871 21.6457 26.5825 23.2556 24.2803 23.9677C23.0447 24.3499 22.0774 26.334 22.0774 27.6274C22.0774 29.8573 22.0581 32.6165 22.0581 33.1591C22.0581 33.5492 22.3021 34.0154 22.9586 33.9854C23.1031 33.9788 23.2435 33.9367 23.3797 33.8882C29.7185 31.629 34 25.4053 34 18.1453C34 8.96763 26.7419 2 17.7935 2ZM8.27097 24.8218C8.1871 24.888 8.20645 25.0402 8.31613 25.1659C8.41936 25.2717 8.56774 25.3181 8.65161 25.232C8.73548 25.1659 8.71613 25.0137 8.60645 24.888C8.50323 24.7821 8.35484 24.7358 8.27097 24.8218ZM7.57419 24.2858C7.52903 24.3718 7.59355 24.4777 7.72258 24.5439C7.82581 24.6101 7.95484 24.5902 8 24.4976C8.01084 24.4769 8.01536 24.4551 8.01419 24.433C8.0049 24.2578 7.7335 24.1465 7.59873 24.2589C7.58929 24.2668 7.58107 24.2758 7.57419 24.2858ZM9.94988 26.6078C9.76355 26.5193 9.54992 26.7461 9.64744 26.9279C9.67126 26.9723 9.70517 27.0151 9.74839 27.0517C9.89677 27.2039 10.0839 27.2237 10.1677 27.1179C10.2516 27.0319 10.2129 26.8333 10.0839 26.7076C10.0423 26.663 9.99627 26.6298 9.94988 26.6078ZM8.92903 25.6688C8.82581 25.7349 8.82581 25.907 8.92903 26.0592C9.03226 26.2114 9.20645 26.2775 9.29032 26.2114C9.39355 26.1253 9.39355 25.9533 9.29032 25.8011C9.2 25.6489 9.03226 25.5827 8.92903 25.6688Z" fill="#050442"/>
</svg>
