<svg width="35" height="35" viewBox="0 0 35 35" fill="none" xmlns="http://www.w3.org/2000/svg">
<path d="M31.25 0H3.75C1.67891 0 0 1.67891 0 3.75V31.25C0 33.3211 1.67891 35 3.75 35H31.25C33.3211 35 35 33.3211 35 31.25V3.75C35 1.67891 33.3211 0 31.25 0ZM13.9154 17.9769C6.83039 12.8349 6.90258 12.822 5 11.3412V9.375C5 8.33945 5.83945 7.5 6.875 7.5H28.125C29.1605 7.5 30 8.33945 30 9.375V11.3412C28.096 12.8231 28.1692 12.8352 21.0846 17.9769C20.2643 18.575 18.6321 20.0176 17.5 19.9999C16.367 20.0169 14.737 18.5759 13.9154 17.9769ZM30 14.5137V25.625C30 26.6605 29.1605 27.5 28.125 27.5H6.875C5.83945 27.5 5 26.6605 5 25.625V14.5137C6.09047 15.3569 7.60383 16.4852 12.4455 19.9991C13.552 20.807 15.4123 22.5105 17.4998 22.4999C19.6003 22.5104 21.487 20.778 22.556 19.998C27.3965 16.4851 28.9095 15.3569 30 14.5137Z" fill="white"/>
</svg>
